<?xml version="1.0" encoding="iso-8859-1"?>
<!-- Generator: Adobe Illustrator 16.0.0, SVG Export Plug-In . SVG Version: 6.00 Build 0)  -->
<!DOCTYPE svg PUBLIC "-//W3C//DTD SVG 1.1//EN" "http://www.w3.org/Graphics/SVG/1.1/DTD/svg11.dtd">
<svg version="1.1" id="Capa_1" xmlns="http://www.w3.org/2000/svg" xmlns:xlink="http://www.w3.org/1999/xlink" x="0px" y="0px"
	 width="552.122px" height="552.122px" viewBox="0 0 552.122 552.122" style="enable-background:new 0 0 552.122 552.122;"
	 xml:space="preserve">
<g>
	<g>
		<path d="M30.601,306.661h14.253c13.721,104.187,96.42,186.887,200.607,200.607v14.254c0,16.896,13.703,30.6,30.6,30.6
			c16.898,0,30.599-13.703,30.599-30.6v-14.254c104.188-13.721,186.887-96.414,200.607-200.607h14.254
			c16.898,0,30.6-13.703,30.6-30.601c0-16.897-13.701-30.6-30.6-30.6h-14.254c-13.721-104.187-96.42-186.886-200.607-200.607V30.6
			c0-16.897-13.701-30.6-30.599-30.6c-16.897,0-30.6,13.703-30.6,30.6v14.253C141.274,58.575,58.575,141.268,44.854,245.461H30.601
			c-16.897,0-30.6,13.703-30.6,30.6C0,292.958,13.703,306.661,30.601,306.661z M245.461,106.764v84.462
			c9.565-3.452,19.841-5.435,30.6-5.435s21.035,1.983,30.599,5.435v-84.462c70.393,12.693,126.006,68.305,138.699,138.697h-84.463
			c3.451,9.566,5.434,19.841,5.434,30.6c0,10.76-1.982,21.035-5.434,30.601h84.463c-12.693,70.393-68.307,126.005-138.699,138.697
			v-84.462c-9.564,3.452-19.84,5.435-30.599,5.435s-21.035-1.982-30.6-5.435v84.462c-70.392-12.692-126.005-68.305-138.698-138.697
			h84.462c-3.452-9.565-5.435-19.841-5.435-30.601c0-10.758,1.977-21.034,5.435-30.6h-84.462
			C119.457,175.069,175.069,119.457,245.461,106.764z"/>
		<circle cx="276.062" cy="276.061" r="38.25"/>
	</g>
</g>
<g>
</g>
<g>
</g>
<g>
</g>
<g>
</g>
<g>
</g>
<g>
</g>
<g>
</g>
<g>
</g>
<g>
</g>
<g>
</g>
<g>
</g>
<g>
</g>
<g>
</g>
<g>
</g>
<g>
</g>
</svg>
